HIERARCHY
ROOT Hips
{
	OFFSET 0.000000 0.000000 0.000000 
	CHANNELS 6 Xposition Yposition Zposition Zrotation Yrotation Xrotation
	JOINT LeftUpLeg
	{
		OFFSET 1.363060 -1.794630 0.839290 
		CHANNELS 3 Zrotation Yrotation Xrotation
		JOINT LeftLeg
		{
			OFFSET 2.448110 -6.726130 0.000000 
			CHANNELS 3 Zrotation Yrotation Xrotation
			JOINT LeftFoot
			{
				OFFSET 2.562200 -7.039590 0.000000 
				CHANNELS 3 Zrotation Yrotation Xrotation
				JOINT LeftToeBase
				{
					OFFSET 0.157640 -0.433110 2.322550 
					CHANNELS 3 Zrotation Yrotation Xrotation
					End Site
					{
						OFFSET 0.000000 0.000000 0.000000 
					}
				}
			}
		}
	}
	JOINT RightUpLeg
	{
		OFFSET -1.305520 -1.794630 0.839290 
		CHANNELS 3 Zrotation Yrotation Xrotation
		JOINT RightLeg
		{
			OFFSET -2.542530 -6.985550 0.000000 
			CHANNELS 3 Zrotation Yrotation Xrotation
			JOINT RightFoot
			{
				OFFSET -2.568260 -7.056230 0.000000 
				CHANNELS 3 Zrotation Yrotation Xrotation
				JOINT RightToeBase
				{
					OFFSET -0.164730 -0.452590 2.363150 
					CHANNELS 3 Zrotation Yrotation Xrotation
					End Site
					{
						OFFSET 0.000000 0.000000 0.000000 
					}
				}
			}
		}
	}
	JOINT Spine
	{
		OFFSET 0.028270 2.035590 -0.193380 
		CHANNELS 3 Zrotation Yrotation Xrotation
		JOINT Spine1
		{
			OFFSET 0.056720 2.048850 -0.042750 
			CHANNELS 3 Zrotation Yrotation Xrotation
			JOINT Neck1
			{
				OFFSET -0.054170 1.746240 0.172020 
				CHANNELS 3 Zrotation Yrotation Xrotation
				JOINT Head
				{
					OFFSET 0.104070 1.761360 -0.123970 
					CHANNELS 3 Zrotation Yrotation Xrotation
					End Site
					{
						OFFSET 0.000000 0.000000 0.000000 
					}
				}
			}
			JOINT LeftArm
			{
				OFFSET 3.362410 1.200890 -0.311210 
				CHANNELS 3 Zrotation Yrotation Xrotation
				JOINT LeftForeArm
				{
					OFFSET 4.983000 -0.000000 -0.000000 
					CHANNELS 3 Zrotation Yrotation Xrotation
					JOINT LeftHand
					{
						OFFSET 3.483560 -0.000000 -0.000000 
						CHANNELS 3 Zrotation Yrotation Xrotation
						JOINT LeftHandIndex1
						{
							OFFSET 0.715260 -0.000000 -0.000000 
							CHANNELS 3 Zrotation Yrotation Xrotation
							End Site
							{
								OFFSET 0.000000 0.000000 0.000000 
							}
						}
					}
				}
			}
			JOINT RightArm
			{
				OFFSET -3.136600 1.374050 -0.404650 
				CHANNELS 3 Zrotation Yrotation Xrotation
				JOINT RightForeArm
				{
					OFFSET -5.241900 -0.000000 -0.000000 
					CHANNELS 3 Zrotation Yrotation Xrotation
					JOINT RightHand
					{
						OFFSET -3.444170 -0.000000 -0.000000 
						CHANNELS 3 Zrotation Yrotation Xrotation
						JOINT RightHandIndex1
						{
							OFFSET -0.622530 -0.000000 -0.000000 
							CHANNELS 3 Zrotation Yrotation Xrotation
							End Site
							{
								OFFSET 0.000000 0.000000 0.000000 
							}
						}
					}
				}
			}
		}
	}
}
MOTION
Frames: 18
Frame Time: 0.041667
22.653906 16.698860 -2.489084 172.980347 -67.713818 -160.977164 -19.570422 -1.353783 -42.678551 8.395103 14.814949 52.411169 1.810857 -12.086701 -14.525256 1.086400 6.624400 18.607200 14.259891 8.720801 -54.088635 -13.393369 -17.622548 69.261353 -1.233401 11.308447 2.893889 -1.851900 8.550400 -24.398800 -1.849982 -0.836412 20.245564 -1.064921 -0.649408 -5.301847 -23.782310 18.992714 -11.047312 -6.991500 9.566800 2.382200 -76.748284 -30.474559 3.513121 118.533185 -56.121569 -83.996674 0.602614 -0.750251 28.288722 -7.125000 0.000000 0.000000 79.200733 -0.453929 22.546598 -57.912288 52.970148 -34.552256 0.714431 0.033619 5.761732 7.125000 0.000000 0.000000 
22.657883 16.656189 -2.518760 171.617094 -67.346920 -159.826394 -20.118572 -1.397364 -42.720813 8.514102 14.873594 52.829066 1.838932 -11.491694 -15.092385 0.966700 6.259800 17.540200 12.581060 8.542600 -55.000190 -13.677619 -17.817793 70.315724 -1.262607 13.164763 5.089390 -2.295100 9.455400 -27.230400 -2.029703 -0.784449 20.250353 -0.709669 -0.637324 -5.300046 -23.442694 18.921515 -11.259912 -6.883700 9.560500 2.222200 -75.948036 -29.620698 3.333244 118.950161 -55.980597 -84.403243 0.633849 -0.782024 27.331755 -7.125000 0.000000 0.000000 79.588247 -0.671943 22.338193 -58.591929 53.180281 -35.173927 0.719330 0.036903 6.021442 7.125000 0.000000 0.000000 
22.659919 16.628550 -2.549212 171.735904 -66.957135 -160.075257 -20.101249 -1.237366 -42.932760 8.697457 15.009945 53.453365 1.935387 -11.741177 -15.812163 0.985800 6.319800 17.715100 11.482677 8.823593 -55.523015 -13.879994 -17.911224 71.050345 -1.262123 15.223746 6.951706 -2.656000 10.116200 -29.353800 -2.049090 -0.606770 20.254535 -0.599357 -0.549136 -5.330316 -23.277985 18.888004 -11.400931 -6.853900 9.561300 2.142200 -75.446965 -29.890727 3.460482 119.005050 -55.967444 -84.433380 0.635599 -0.769478 26.281219 -7.125000 0.000000 0.000000 79.686712 -0.884643 22.193402 -58.970498 53.295610 -35.510939 0.726293 0.034909 6.383280 7.125000 0.000000 0.000000 
22.657010 16.592473 -2.570935 173.234320 -66.549901 -161.559547 -19.589746 -0.943687 -43.374033 8.945402 15.186989 54.186837 2.075527 -14.233660 -16.012514 1.515600 7.774300 22.030800 10.998918 9.502903 -55.691182 -14.008177 -17.913067 71.463716 -1.231553 17.062672 7.581361 -2.793500 10.353000 -30.127600 -1.876942 -0.519551 20.248728 -0.686866 -0.488663 -5.352901 -23.252504 18.972370 -11.603974 -6.835400 9.628500 2.066900 -74.980766 -30.023619 2.853731 119.343496 -55.883467 -84.658813 0.611035 -0.744177 25.903261 -7.125000 0.000000 0.000000 79.594131 -0.946419 22.271666 -59.336238 53.406110 -35.843250 0.729583 0.032262 6.893905 7.125000 0.000000 0.000000 
22.659822 16.553196 -2.592368 173.904747 -66.171081 -162.252361 -19.411471 -0.676402 -43.787884 9.078518 15.356751 54.862985 2.061308 -11.027802 -17.270222 1.129100 6.749100 18.974100 10.057910 10.438707 -55.758651 -14.075242 -17.893502 71.692992 -1.211575 17.555155 8.222185 -2.213500 9.297200 -26.729600 -1.895318 -0.538687 20.256506 -0.660370 -0.500028 -5.334143 -23.257076 19.139363 -11.596250 -6.821200 9.710400 2.104800 -74.488002 -30.081910 2.341510 119.509451 -55.730355 -84.917465 0.683236 -0.793474 26.261456 -7.125000 0.000000 0.000000 79.438899 -0.966110 22.581890 -59.900583 53.573088 -36.366213 0.733108 0.045564 6.794824 7.125000 0.000000 0.000000 
22.659434 16.542819 -2.623692 174.420750 -66.019476 -162.815085 -19.108046 -0.564472 -43.909282 9.207054 15.473725 55.358271 2.090454 -10.341353 -17.890873 1.332000 7.308400 20.632400 9.064843 11.224444 -55.777371 -14.099593 -17.872377 71.770099 -1.233852 16.748857 8.019148 -1.628700 8.045700 -22.853100 -1.918770 -0.523514 20.270813 -0.650864 -0.495207 -5.283626 -23.350207 19.207502 -11.563561 -6.883700 9.739200 2.170100 -74.136714 -30.160956 2.273356 119.316072 -55.740018 -84.826795 0.693874 -0.808134 27.009819 -7.125000 0.000000 0.000000 79.483225 -1.148668 22.601007 -60.775251 53.829518 -37.184223 0.728798 0.058124 6.015688 7.125000 0.000000 0.000000 
22.651967 16.538940 -2.661805 175.621352 -65.922872 -164.141631 -18.426872 -0.487630 -43.767185 9.323098 15.573808 55.745406 2.158658 -10.793114 -18.187471 1.701400 8.214300 23.367000 8.583806 11.606510 -55.621350 -14.102341 -17.852524 71.708944 -1.273727 15.570030 5.837490 -1.835100 8.513800 -24.285700 -1.513016 -0.533369 20.315907 -0.583127 -0.478764 -5.286771 -23.126868 19.169957 -11.955588 -6.835300 9.770900 1.960100 -76.124404 -30.502882 1.708018 120.506912 -55.417157 -85.809522 0.704201 -0.827240 28.513881 -7.125000 0.000000 0.000000 79.408482 -1.367193 22.524244 -61.505009 54.036550 -37.857567 0.728457 0.044939 5.927578 7.125000 0.000000 0.000000 
22.645372 16.512853 -2.696912 176.139203 -65.795300 -164.980832 -18.035164 -0.491429 -43.426935 9.423984 15.647386 56.097523 2.200812 -10.673522 -18.580276 1.439400 7.584900 21.460300 7.912832 11.675694 -55.212537 -14.071583 -17.847932 71.528245 -1.324801 14.038403 2.734448 -2.399500 9.652900 -27.859900 -1.147448 -0.593295 20.414161 -0.304283 -0.494521 -5.269917 -22.908224 19.163206 -12.165846 -6.737700 9.802200 1.797000 -74.912788 -30.663243 1.389469 119.478514 -55.710090 -84.865220 0.661117 -0.803004 28.042449 -7.125000 0.000000 0.000000 79.213808 -1.478350 22.704728 -61.516692 54.030467 -37.832245 0.754636 0.025155 6.800772 7.125000 0.000000 0.000000 
22.642172 16.474158 -2.725521 175.830553 -65.670821 -165.023014 -17.963064 -0.766021 -43.067551 9.539483 15.712717 56.510626 2.250084 -9.985647 -19.339053 1.001400 6.367900 17.855700 6.797332 11.799315 -54.790349 -13.991465 -17.837279 71.225952 -1.327330 11.861419 0.059323 -2.705600 10.202600 -29.635200 -1.277002 -0.576939 20.507255 -0.243981 -0.503565 -5.272943 -22.857603 19.135531 -12.154330 -6.731300 9.784900 1.794100 -73.798922 -31.097198 1.532129 118.831815 -55.972003 -84.164415 0.563454 -0.716264 27.897661 -7.125000 0.000000 0.000000 79.469561 -1.540385 22.624740 -61.557441 54.032219 -37.842954 0.777893 0.037456 6.892779 7.125000 0.000000 0.000000 
22.638002 16.464848 -2.759464 175.629227 -65.396526 -165.058895 -17.803926 -0.998786 -42.747685 9.644853 15.771135 56.856420 2.310813 -9.938010 -19.827959 1.054200 6.528700 18.326500 5.707544 12.255868 -54.362949 -13.827918 -17.774319 70.671553 -1.240201 9.303048 -2.091565 -2.630700 10.071700 -29.209300 -1.680129 -0.481456 20.474854 -0.358383 -0.479357 -5.372263 -22.848206 19.043664 -12.372236 -6.813800 9.761800 1.723500 -73.357666 -31.522409 1.865711 118.407902 -56.055405 -83.858959 0.581821 -0.738424 27.867944 -7.125000 0.000000 0.000000 80.081092 -1.632954 22.346085 -61.759593 54.083726 -38.035057 0.783653 0.049979 6.677054 7.125000 0.000000 0.000000 
22.631407 16.444870 -2.801262 175.884578 -65.098204 -165.468387 -17.463756 -0.912883 -42.605250 9.754494 15.846061 57.202793 2.362187 -10.437017 -19.950498 1.274900 7.156200 20.178800 4.761714 13.208198 -53.937187 -13.664967 -17.673718 70.106039 -1.049444 6.309163 -4.273583 -2.341300 9.543400 -27.510400 -1.784733 -0.508624 20.445337 -0.287867 -0.498310 -5.413010 -23.002838 19.073620 -12.584480 -6.907300 9.806200 1.674000 -73.145806 -31.505365 0.879631 118.431008 -55.928039 -83.970464 0.649132 -0.783008 27.112506 -7.125000 0.000000 0.000000 80.261159 -1.659824 22.458471 -61.883998 54.113367 -38.155540 0.788219 0.054987 6.616522 7.125000 0.000000 0.000000 
22.627431 16.418588 -2.836272 176.340028 -64.876151 -166.068700 -17.187241 -0.704071 -42.495201 9.805563 15.903408 57.409590 2.379060 -10.103126 -20.253527 1.120100 6.723100 18.897500 3.988687 14.077595 -53.489552 -13.465061 -17.562007 69.433064 -0.734063 2.962476 -6.338200 -2.372900 9.603100 -27.700700 -1.642241 -0.581591 20.437068 -0.185173 -0.526310 -5.463281 -23.296197 19.149692 -12.826168 -7.007600 9.885900 1.606000 -73.363805 -31.820456 0.500565 118.522369 -55.888504 -84.020635 0.655784 -0.778735 27.178024 -7.125000 0.000000 0.000000 80.179983 -1.649965 22.584224 -62.089626 54.168501 -38.347391 0.788342 0.075420 6.172421 7.125000 0.000000 0.000000 
22.624425 16.399192 -2.873415 176.222896 -64.545515 -165.998328 -17.223860 -0.655307 -42.433674 9.808269 15.921145 57.476897 2.356580 -9.238972 -20.579718 0.798600 5.703800 15.927200 2.809021 14.756612 -53.350476 -13.282161 -17.478749 68.848831 -0.489603 0.740621 -7.925463 -1.947900 8.756800 -25.037300 -1.843233 -0.439268 20.438665 -0.244909 -0.467452 -5.455565 -23.187403 19.147666 -12.871784 -6.985700 9.888600 1.576100 -73.257426 -32.312393 0.953865 118.280071 -56.029298 -83.701595 0.600540 -0.733962 27.544041 -7.125000 0.000000 0.000000 80.552453 -1.703055 22.173696 -62.194708 54.202547 -38.462712 0.774713 0.071347 6.066254 7.125000 0.000000 0.000000 
22.615212 16.372717 -2.920257 175.285665 -64.119531 -165.163573 -17.662680 -0.600890 -42.354362 9.807696 15.914036 57.507385 2.347487 -8.539781 -20.932892 0.491100 4.493100 12.468200 1.366986 15.329237 -53.099750 -13.010664 -17.375180 67.998738 -0.177687 -1.774124 -9.688166 -1.866200 8.581700 -24.495200 -2.362246 -0.224128 20.486161 -0.244475 -0.397898 -5.330489 -22.603303 19.143104 -12.563925 -6.798500 9.837100 1.640100 -72.111565 -32.538805 0.931397 117.599560 -56.170456 -83.192567 0.582494 -0.743532 27.002957 -7.125000 0.000000 0.000000 81.117204 -1.808732 21.765468 -62.219687 54.212874 -38.509232 0.762701 0.063897 5.769891 7.125000 0.000000 0.000000 
22.599598 16.356909 -2.973014 174.795847 -63.710698 -164.660219 -17.898463 -0.381329 -42.358756 9.811406 15.919725 57.549807 2.359106 -7.991086 -21.349428 0.279600 3.401200 9.397700 0.260426 15.949837 -52.753720 -12.635557 -17.215767 66.803422 0.218886 -4.588246 -11.419183 -1.913900 8.684400 -24.813000 -2.552346 -0.190650 20.496318 0.001216 -0.396513 -5.097057 -22.320203 19.150641 -12.684885 -6.704400 9.856600 1.543800 -71.135754 -32.806620 0.895422 116.712443 -56.349132 -82.475946 0.567910 -0.744719 26.856277 -7.125000 0.000000 0.000000 81.369379 -1.710700 21.756642 -61.971137 54.140785 -38.292919 0.755255 0.067619 5.567169 7.125000 0.000000 0.000000 
22.588057 16.349539 -3.018303 175.825375 -63.431800 -165.621124 -17.173371 -0.349705 -42.267678 9.871622 15.974788 57.728388 2.422393 -8.560817 -21.436961 0.544400 4.727100 13.131900 0.000478 16.675041 -52.050306 -12.148010 -16.955641 65.188463 0.566030 -6.861430 -12.784555 -1.556500 7.873700 -22.331100 -2.347702 -0.260762 20.530162 0.067809 -0.416738 -4.944515 -22.424111 19.250972 -13.009101 -6.712700 9.946500 1.438400 -70.208115 -32.106434 0.032781 117.302269 -56.196577 -82.915336 0.564618 -0.725214 26.228860 -7.125000 0.000000 0.000000 81.482423 -1.352919 21.848286 -61.456754 53.997458 -37.836396 0.741148 0.059588 5.909385 7.125000 0.000000 0.000000 
22.586021 16.337998 -3.042257 176.953266 -63.275446 -167.149930 -16.359471 -0.599343 -41.662606 9.943469 16.035759 57.956037 2.473690 -8.933046 -21.576202 0.881900 5.986600 16.745600 -0.123363 17.209810 -50.774545 -11.592825 -16.642594 63.317947 0.860949 -8.632169 -13.663705 -1.046900 6.506800 -18.262100 -2.274342 -0.273749 20.588585 -0.272324 -0.420299 -5.274405 -22.698060 19.255232 -13.038184 -6.810600 9.952900 1.462200 -70.012259 -32.599128 -0.246201 116.642306 -56.320861 -82.391250 0.560255 -0.735083 26.439128 -7.125000 0.000000 0.000000 81.736874 -1.130963 21.599796 -60.990277 53.873686 -37.418166 0.731540 0.043826 6.255018 7.125000 0.000000 0.000000 
22.579523 16.326651 -3.070187 176.864196 -63.082624 -167.491740 -16.280296 -0.870221 -41.086250 9.982882 16.055086 58.124170 2.482874 -8.178446 -22.099682 0.738900 5.491500 15.316000 -0.930584 17.725301 -49.696121 -11.026379 -16.331225 61.415046 1.129174 -10.207589 -14.511855 -0.481900 4.451500 -12.350500 -2.205729 -0.313659 20.667571 -0.309174 -0.443538 -5.491379 -22.705302 19.157662 -13.357814 -6.805200 9.943900 1.288700 -69.952146 -32.490577 -0.534551 117.141759 -56.216437 -82.800984 0.549800 -0.730790 26.338116 -7.125000 0.000000 0.000000 81.736525 -0.968716 21.365297 -60.591492 53.765493 -37.046027 0.726545 0.026504 6.620868 7.125000 0.000000 0.000000 
